<svg width="400" height="400" viewBox="0 0 400 400" fill="none" xmlns="http://www.w3.org/2000/svg">
<rect width="400" height="400" fill="#F3F4F6"/>
<path d="M200 100C165.375 100 137.5 127.875 137.5 162.5C137.5 197.125 165.375 225 200 225C234.625 225 262.5 197.125 262.5 162.5C262.5 127.875 234.625 100 200 100Z" fill="#9CA3AF"/>
<path d="M150 275C137.234 275 127.5 284.734 127.5 297.5V312.5C127.5 325.266 137.234 335 150 335H250C262.766 335 272.5 325.266 272.5 312.5V297.5C272.5 284.734 262.766 275 250 275H150Z" fill="#9CA3AF"/>
<text x="200" y="360" font-family="Arial, sans-serif" font-size="14" fill="#6B7280" text-anchor="middle">No Image</text>
</svg>








