<svg xmlns="http://www.w3.org/2000/svg" viewBox="0 0 900 600">
  <rect fill="#de2910" width="900" height="600"/>
  <g fill="#ffde00">
    <polygon points="150,75 168.75,131.25 225,131.25 180,168.75 198.75,225 150,187.5 101.25,225 120,168.75 75,131.25 131.25,131.25"/>
    <polygon points="270,37.5 282.75,75 322.5,75 292.5,97.5 305.25,135 270,112.5 234.75,135 247.5,97.5 217.5,75 257.25,75"/>
    <polygon points="330,112.5 342.75,150 382.5,150 352.5,172.5 365.25,210 330,187.5 294.75,210 307.5,172.5 277.5,150 317.25,150"/>
    <polygon points="330,210 342.75,247.5 382.5,247.5 352.5,270 365.25,307.5 330,285 294.75,307.5 307.5,270 277.5,247.5 317.25,247.5"/>
    <polygon points="270,262.5 282.75,300 322.5,300 292.5,322.5 305.25,360 270,337.5 234.75,360 247.5,322.5 217.5,300 257.25,300"/>
  </g>
</svg>